<?xml version="1.0" encoding="iso-8859-1"?>
<!-- Generator: Adobe Illustrator 19.0.0, SVG Export Plug-In . SVG Version: 6.00 Build 0)  -->
<svg version="1.1" id="Layer_1" xmlns="http://www.w3.org/2000/svg" xmlns:xlink="http://www.w3.org/1999/xlink" x="0px" y="0px"
	 viewBox="0 0 512 512" style="enable-background:new 0 0 512 512;" xml:space="preserve">
<path style="fill:#83818F;" d="M380.451,81.549l127.175,127.175C485.444,89.927,381.232,0,256,0C114.615,0,0,114.615,0,256
	c0,116.237,77.476,214.363,183.598,245.599L120,438L380.451,81.549z"/>
<path style="fill:#6B5E6E;" d="M512,256c0-16.153-1.513-31.952-4.374-47.275L380.451,81.549L120,438l63.598,63.598
	C206.558,508.357,230.852,512,256,512C397.385,512,512,397.385,512,256z"/>
<polygon style="fill:#FFDD7D;" points="206,270 256,438 392,438 392,270 "/>
<rect x="120" y="270" style="fill:#FFEDBA;" width="136" height="168"/>
<polygon style="fill:#523A4C;" points="372,254 256,254 342,382 372,382 "/>
<polygon style="fill:#6B5E6E;" points="140,254 140,382 170,382 256,254 "/>
<polygon style="fill:#FFA851;" points="342,342 236,314 256,382 342,382 "/>
<polygon style="fill:#FFC65C;" points="170,342 170,382 256,382 256,314 "/>
<path style="fill:#FFEDBA;" d="M432,206c0-97.202-78.798-176-176-176l-20,176l20,136h86v-22.928
	C393.546,307.269,432,261.126,432,206z"/>
<g>
	<rect x="276" y="121" style="fill:#FFDD7D;" width="20" height="20"/>
	<rect x="306" y="91" style="fill:#FFDD7D;" width="20" height="20"/>
</g>
<path style="fill:#FFFFFF;" d="M80,206c0,55.126,38.454,101.269,90,113.072V342h86V30C158.798,30,80,108.798,80,206z"/>
<rect x="216" y="121" style="fill:#FFEDBA;" width="20" height="20"/>
<circle style="fill:#6B5E6E;" cx="170" cy="206" r="50"/>
<g>
	<circle style="fill:#523A4C;" cx="342" cy="206" r="50"/>
	<polygon style="fill:#523A4C;" points="276.497,238.484 276.497,236 256,236 246,251 256,266 262,266 266,286 286,286 	"/>
</g>
<polygon style="fill:#6B5E6E;" points="236,236 226,286 246,286 250,266 256,266 256,236 "/>
<g>
</g>
<g>
</g>
<g>
</g>
<g>
</g>
<g>
</g>
<g>
</g>
<g>
</g>
<g>
</g>
<g>
</g>
<g>
</g>
<g>
</g>
<g>
</g>
<g>
</g>
<g>
</g>
<g>
</g>
</svg>
